<svg xmlns="http://www.w3.org/2000/svg" width="32" height="32">
    <g style="opacity:.298">
        <path data-name="Path 339" d="M-213.344-2989.344a16 16 0 0 0-16 16 16 16 0 0 0 16 16 16 16 0 0 0 16-16 16 16 0 0 0-16-16zm0 4.909a2.362 2.362 0 0 1 2.363 2.363 2.362 2.362 0 0 1-2.363 2.362 2.362 2.362 0 0 1-2.363-2.362 2.362 2.362 0 0 1 2.363-2.363zm2.372 19.811a2.371 2.371 0 0 1-2.372 2.371 2.371 2.371 0 0 1-2.372-2.371v-8.6a2.372 2.372 0 0 1 2.372-2.372 2.372 2.372 0 0 1 2.372 2.372z" transform="translate(229.344 2989.344)" style="fill:#805700"/>
    </g>
</svg>
