<svg xmlns="http://www.w3.org/2000/svg" width="44" height="44">
    <circle data-name="Ellipse 91" cx="22" cy="22" r="22" style="fill:#ffd681"/>
    <path d="M-7219 592.234a3.811 3.811 0 0 0 .145-.453 8.815 8.815 0 0 1 2.254-4.515c3.79-4.122 7.508-8.312 11.229-12.494a1.865 1.865 0 0 1 2.021-.657c4.686 1.074 9.385 2.1 14.079 3.15 1.473.328 1.8 1.252.819 2.389q-6.158 7.113-12.324 14.212a1.514 1.514 0 0 1-1.741.47q-5.767-1.668-11.542-3.292c-1.743-.493-2.534.117-2.565 1.949a3.185 3.185 0 0 0 2.48 3.384c4.1 1.211 8.2 2.429 12.311 3.617a.867.867 0 0 0 .74-.211q5.171-6.172 10.288-12.388a1.434 1.434 0 0 0 .2-.738 26.865 26.865 0 0 1 .268-2.73 1.113 1.113 0 0 1 1.45-.923c.687.214.891.808.775 1.619a7.373 7.373 0 0 0 .012 2.237 1.669 1.669 0 0 1-.4 1.464q-2.722 3.287-5.447 6.573c-1.863 2.243-3.733 4.479-5.588 6.727-.943 1.142-1.071 1.19-2.481.771-4.343-1.29-8.684-2.591-13.032-3.858a5.263 5.263 0 0 1-3.809-4.258 3.218 3.218 0 0 0-.136-.379zm14.584-13.561c-.888-.054-1.262.621-1.726 1.155-.7.8-.621 1.057.427 1.317 2.6.643 5.217 1.219 7.795 1.932a2.314 2.314 0 0 0 2.867-.97c.563-.815.516-1.038-.486-1.282-1.971-.481-3.941-.971-5.915-1.452-.987-.24-1.975-.467-2.963-.7z" transform="translate(7224.918 -566.987)" style="fill:#805700"/>
</svg>
