<svg xmlns="http://www.w3.org/2000/svg" width="22" height="25.488">
    <defs>
        <style>
            .cls-1{fill:rgba(26,26,26,.7)}
        </style>
    </defs>
    <g id="icon_sort" transform="translate(-1452.638 1336.431)">
        <g id="Group_1413" data-name="Group 1413" transform="translate(1452.638 -1336.431)">
            <path id="Path_716" data-name="Path 716" class="cls-1" d="m1464.477-1331.368-5.053-4.779c-.019-.018-.039-.034-.059-.051l-.014-.012c-.019-.015-.039-.028-.059-.042l-.021-.014c-.02-.013-.04-.024-.06-.035l-.025-.014a.791.791 0 0 0-.06-.027l-.03-.013-.059-.02-.035-.012-.061-.015-.036-.008c-.024 0-.048-.008-.072-.01h-.026a1.079 1.079 0 0 0-.2 0h-.036l-.062.009-.047.011-.05.012-.047.016-.046.016-.045.02-.044.02-.045.025-.04.023a1.699 1.699 0 0 0-.053.037l-.027.019a1 1 0 0 0-.077.066l-5.051 4.777a.923.923 0 0 0 0 1.357 1.056 1.056 0 0 0 1.435 0l3.32-3.14v21.251a.989.989 0 0 0 1.015.96.989.989 0 0 0 1.015-.96v-21.251l3.321 3.14a1.041 1.041 0 0 0 .718.281 1.042 1.042 0 0 0 .718-.281.923.923 0 0 0-.002-1.356z" transform="translate(-1452.638 1336.428)"/>
        </g>
        <g id="Group_1414" data-name="Group 1414" transform="translate(1462.503 -1336.431)">
            <path id="Path_717" data-name="Path 717" class="cls-1" d="M1639.881-1317.361a1.056 1.056 0 0 0-1.435 0l-3.321 3.141v-21.251a.989.989 0 0 0-1.015-.96.989.989 0 0 0-1.015.96v21.251l-3.32-3.14a1.056 1.056 0 0 0-1.435 0 .923.923 0 0 0 0 1.357l5.051 4.777q.037.035.077.066l.027.019.053.037.039.023.046.026.044.02.046.02.046.016.048.016.048.012.048.011.06.009.038.005h.228c.024 0 .047-.006.07-.01l.037-.008.06-.015.036-.012.058-.02.03-.013.06-.027.025-.014a.931.931 0 0 0 .06-.035l.021-.015a.792.792 0 0 0 .059-.042l.014-.011a.936.936 0 0 0 .059-.051l5.053-4.779a.923.923 0 0 0 0-1.363z" transform="translate(-1628.043 1336.431)"/>
        </g>
    </g>
</svg>
