<svg xmlns="http://www.w3.org/2000/svg" width="180.811" height="41.934">
    <defs>
        <style>
            .cls-1{fill:#805700}
        </style>
    </defs>
    <g id="logo" transform="translate(-30.835 -71.066)">
        <g id="Group_1544" data-name="Group 1544" transform="translate(30.835 71.066)">
            <g id="Group_433" data-name="Group 433">
                <path id="Path_13" data-name="Path 13" class="cls-1" d="M360.866 247.278c-4.45 8.912-21.427-4.673-24.336-3.182l-3.356 2.365a.638.638 0 0 0-.295.373.921.921 0 0 0 0 .148 1.253 1.253 0 0 0 .016.432.124.124 0 0 1 0 .031s.005-.008 0-.015a6.14 6.14 0 0 0 .713 1.551c.515.865 5.015 6.628 5.015 13.845 0 5.753-5.063 10.426-11.478 10.426s-11.6-4.658-11.6-10.41a8.682 8.682 0 0 1 1.255-4.442 7.744 7.744 0 0 0 .525 6.206 9.511 9.511 0 0 1 3.316-.563c6.706 0 9.987 6.047 8.623 8.627 11.091-3.593 7.2-18.65-4.755-18.65a10.048 10.048 0 0 0-2.018.207 13 13 0 0 0-11.043 12.856c0 8.714 7.529 15.72 17.042 15.72a17.17 17.17 0 0 0 8.9-2.49 3.707 3.707 0 0 1-.088-.733 4.528 4.528 0 0 1 4.677-4.361 4.852 4.852 0 0 1 .75.075 17 17 0 0 0 2.975-9.628 23.474 23.474 0 0 0-2.916-11.171 31.739 31.739 0 0 0 3.645 2.485c9.038 5.169 17.235-1.652 14.426-9.7" transform="translate(-311.452 -243.98)"/>
                <path id="Path_14" data-name="Path 14" class="cls-1" d="M436.024 400.141a4.781 4.781 0 0 0 4.855 3.624 4.675 4.675 0 0 0 4.931-4.357 4.549 4.549 0 0 0-4.137-4.286 17.991 17.991 0 0 1-5.649 5.02" transform="translate(-410.421 -363.809)"/>
            </g>
        </g>
        <g id="Group_1556" data-name="Group 1556" transform="translate(-3)">
            <text id="美育學院" transform="translate(89.646 103)" style="font-size:29px;font-family:PingFangTC-Semibold,PingFang TC;font-weight:600;letter-spacing:.1em;fill:#805700"><tspan x="0" y="0">美育學院</tspan></text>
        </g>
    </g>
</svg>
