<svg id="picture" xmlns="http://www.w3.org/2000/svg" width="145" height="118">
    <defs>
        <style>
            .cls-2{fill:#0091a2}.cls-3{fill:#fff}.cls-11,.cls-4{fill:#231f20}.cls-4{opacity:.2}.cls-5{fill:none;stroke-miterlimit:10;stroke:#dfdbda;stroke-width:2px}.cls-7{fill:#eeaf35}.cls-8{fill:#ffdb49}.cls-11{opacity:.1}.cls-12{fill:#386e8a}.cls-13{fill:#1f143f}.cls-15{fill:#fab594}.cls-16{fill:#29baa3}
        </style>
    </defs>
    <path id="Rectangle_3172" data-name="Rectangle 3172" d="M10 0h125a10 10 0 0 1 10 10v108H0V10A10 10 0 0 1 10 0z" style="fill:#ffd681"/>
    <g id="Group_2108" data-name="Group 2108" transform="translate(47.831 30.685)">
        <path id="Path_1430" data-name="Path 1430" class="cls-2" d="M311.852 332.7h45.519c3.007-3.784 3.332-8.628 0-11.478h-45.519v1.374h1.442v8.568h-1.442z" transform="translate(-307.609 -281.676)"/>
        <path id="Path_1431" data-name="Path 1431" class="cls-3" d="M316.326 333.5h42.784c2.061-1.9 2.121-6.829 0-8.568h-42.784z" transform="translate(-310.427 -283.89)"/>
        <path id="Path_1432" data-name="Path 1432" class="cls-4" d="M358.025 326.529h-41.7v-1.6h42.785c2.121 1.738 2.061 6.67 0 8.568h-.031c.93-2.285.608-5.606-1.054-6.968z" transform="translate(-310.427 -283.89)"/>
        <path id="Line_76" data-name="Line 76" class="cls-5" transform="translate(8.985 44.727)" d="M37.489 0H0"/>
        <path id="Line_77" data-name="Line 77" class="cls-5" transform="translate(7.451 47.019)" d="M37.489 0H0"/>
        <path id="Path_1433" data-name="Path 1433" d="M350.675 270.749h-45.519c-3.007-3.784-3.332-8.628 0-11.478h45.519v1.374h-1.442v8.568h1.442z" transform="translate(-301.891 -239.469)" style="fill:#00a1dd"/>
        <path id="Path_1434" data-name="Path 1434" class="cls-3" d="M352.238 271.552h-42.784c-2.061-1.9-2.121-6.829 0-8.568h42.784z" transform="translate(-305.11 -241.837)"/>
        <path id="Path_1435" data-name="Path 1435" class="cls-4" d="M310.54 264.582h41.7v-1.6h-42.786c-2.121 1.738-2.061 6.67 0 8.568h.031c-.929-2.285-.607-5.606 1.055-6.968z" transform="translate(-305.11 -241.837)"/>
        <path id="Line_78" data-name="Line 78" class="cls-5" transform="translate(6.553 24.457)" d="M0 0h37.489"/>
        <path id="Line_79" data-name="Line 79" class="cls-5" transform="translate(12.009 26.749)" d="M0 0h30.41"/>
        <path id="Path_1436" data-name="Path 1436" class="cls-7" d="M317.4 363.721h45.519c3.007-3.784 3.332-8.628 0-11.478H317.4v1.374h1.442v8.567H317.4z" transform="translate(-311.101 -302.814)"/>
        <path id="Path_1437" data-name="Path 1437" class="cls-8" d="M300.509 363.721h45.519c3.007-3.784 3.332-8.628 0-11.478h-45.519v1.374h1.442v8.567h-1.442z" transform="translate(-300.462 -302.814)"/>
        <path id="Path_1438" data-name="Path 1438" class="cls-3" d="M304.983 364.524h42.784c2.061-1.9 2.121-6.829 0-8.567h-42.784z" transform="translate(-303.281 -305.154)"/>
        <path id="Path_1439" data-name="Path 1439" class="cls-4" d="M346.681 357.554h-41.7v-1.6h42.784c2.121 1.738 2.061 6.67 0 8.567h-.031c.932-2.284.609-5.605-1.053-6.967z" transform="translate(-303.281 -305.154)"/>
        <path id="Line_80" data-name="Line 80" class="cls-5" transform="translate(11.867 54.092)" d="M30.41 0H0"/>
        <path id="Line_81" data-name="Line 81" class="cls-5" transform="translate(6.412 56.683)" d="M37.489 0H0"/>
        <g id="Group_2051" data-name="Group 2051" transform="translate(0 10.011)">
            <path id="Path_1440" data-name="Path 1440" d="M317.268 240.026h45.519c3.007-3.784 3.332-8.628 0-11.478h-45.519v1.374h1.442v8.568h-1.442z" transform="translate(-311.021 -228.548)" style="fill:#3cb35e"/>
            <path id="Path_1441" data-name="Path 1441" d="M300.382 240.026H345.9c3.007-3.784 3.332-8.628 0-11.478h-45.518v1.374h1.442v8.568h-1.442z" transform="translate(-300.382 -228.548)" style="fill:#009364"/>
            <path id="Path_1442" data-name="Path 1442" class="cls-3" d="M304.855 240.829h42.784c2.061-1.9 2.121-6.829 0-8.568h-42.784z" transform="translate(-303.2 -230.887)"/>
            <path id="Path_1443" data-name="Path 1443" class="cls-4" d="M346.554 233.858h-41.7v-1.6h42.784c2.121 1.739 2.061 6.67 0 8.568h-.031c.931-2.285.609-5.606-1.053-6.968z" transform="translate(-303.2 -230.887)"/>
            <path id="Line_82" data-name="Line 82" class="cls-5" transform="translate(11.82 4.663)" d="M30.41 0H0"/>
            <path id="Line_83" data-name="Line 83" class="cls-5" transform="translate(6.365 7.254)" d="M37.489 0H0"/>
        </g>
        <rect id="Rectangle_3133" data-name="Rectangle 3133" class="cls-8" width="50.181" height="11.623" rx="2" transform="rotate(180 25.569 20.6)"/>
        <path id="Path_1444" data-name="Path 1444" class="cls-11" d="M352.33 292.63a.528.528 0 0 0-.49-.559h-48.874v-1.527a.528.528 0 0 1 .491-.559h49.2a.528.528 0 0 1 .49.559v10.5a.528.528 0 0 1-.49.56h-.327z" transform="translate(-302.01 -260.407)"/>
        <path id="Rectangle_3134" data-name="Rectangle 3134" class="cls-7" transform="rotate(180 22.522 20.569)" d="M0 0h6.854v11.555H0z"/>
        <path id="Rectangle_3135" data-name="Rectangle 3135" class="cls-7" transform="rotate(180 18.475 19.801)" d="M0 0h4.436v8.402H0z"/>
        <rect id="Rectangle_3136" data-name="Rectangle 3136" class="cls-2" width="50.181" height="11.623" rx="2" transform="rotate(180 25.569 5.812)"/>
        <path id="Path_1445" data-name="Path 1445" class="cls-11" d="M352.33 199.778a.528.528 0 0 0-.49-.559h-48.874v-1.527a.528.528 0 0 1 .491-.559h49.2a.528.528 0 0 1 .49.559v10.5a.528.528 0 0 1-.49.56h-.327z" transform="translate(-302.01 -197.132)"/>
        <path id="Rectangle_3137" data-name="Rectangle 3137" class="cls-12" transform="rotate(180 22.522 5.778)" d="M0 0h6.854v11.555H0z"/>
        <path id="Rectangle_3138" data-name="Rectangle 3138" class="cls-12" transform="rotate(180 18.475 4.989)" d="M0 0h4.436v8.402H0z"/>
    </g>
    <g id="Group_2109" data-name="Group 2109" transform="translate(32 40.344)">
        <path id="Path_1460" data-name="Path 1460" class="cls-13" d="M311.729 224.526a1.1 1.1 0 0 0-.39-.061.351.351 0 0 0-.308.213.366.366 0 0 0 .009.22c.118.375.54.546.914.67l4.135 1.371a.492.492 0 0 0 .19.036.4.4 0 0 0 .2-.083 1.862 1.862 0 0 0 .636-1.375 5.141 5.141 0 0 1 .25-1.536c.073-.169.174-.363.085-.524a.5.5 0 0 0-.184-.166 5.908 5.908 0 0 0-1.279-.6 9 9 0 0 1-.57 1.529c-.837 1.068-2.589.609-3.688.306z" transform="translate(-311.018 -172.057)"/>
        <path id="Path_1461" data-name="Path 1461" d="M349.294 145.171a.226.226 0 0 0 .045.106.218.218 0 0 0 .129.053 8.216 8.216 0 0 0 3.038-.227q-.406-1.752-.9-3.481a.168.168 0 0 0-.052-.094.166.166 0 0 0-.127-.012q-.772.139-1.541.295c-.433.087-.868.137-1.3.236a16.118 16.118 0 0 1 .378 1.6q.155.763.33 1.524z" transform="translate(-329.701 -131.681)" style="fill:#d99d81"/>
        <path id="Path_1462" data-name="Path 1462" class="cls-13" d="M320.661 190.827a33.294 33.294 0 0 1 1.641-4.46 1.816 1.816 0 0 1 .51-.739 1.883 1.883 0 0 1 .674-.265l5.684-1.419a33.653 33.653 0 0 1 5.675-1.076c1.2-.087 4.71-.462 5.154 1a1.978 1.978 0 0 1-.267 1.487c-.9 1.649-2.738 2.538-4.511 3.164a31.672 31.672 0 0 1-9.259 1.776c-1.672 4.654-2.932 9.45-4.374 14.193l-3.723-1.008s1.076-5.715 1.215-6.312c.502-2.148.968-4.268 1.581-6.341z" transform="translate(-314.425 -152.197)"/>
        <path id="Path_1463" data-name="Path 1463" class="cls-13" d="M334.388 227.139a1.1 1.1 0 0 0-.308.246.35.35 0 0 0-.051.371.365.365 0 0 0 .168.142 1.276 1.276 0 0 0 1.111-.221l3.8-2.123a.49.49 0 0 0 .156-.116.41.41 0 0 0 .072-.2 1.864 1.864 0 0 0-.584-1.4 5.142 5.142 0 0 1-.964-1.221c-.075-.168-.15-.373-.329-.417a.5.5 0 0 0-.247.024 5.937 5.937 0 0 0-1.3.539 8.952 8.952 0 0 1 .743 1.453c.22 1.336-1.302 2.318-2.267 2.923z" transform="translate(-322.446 -171.809)"/>
        <path id="Path_1464" data-name="Path 1464" class="cls-15" d="M342.665 136.2a2.1 2.1 0 0 0 1.663.681 4.6 4.6 0 0 0 2.078-.891 6.1 6.1 0 0 0 2.489-3.836c.307-2.241-1.63-4.072-3.72-4.406a4.764 4.764 0 0 0-.742-.059 3.986 3.986 0 0 0-3.395 1.456c-.879 1.231-.606 3.122-.084 4.458a7.657 7.657 0 0 0 1.711 2.597z" transform="translate(-325.666 -124.805)"/>
        <path id="Path_1465" data-name="Path 1465" class="cls-13" d="M330.019 190.323a23.014 23.014 0 0 1 1.062 3.287l2.4 8.971-3.338 1c-.833-2.311-1.809-4.567-2.789-6.819-.343-.788-.678-1.58-1.015-2.371-.6-1.414-1.214-2.826-1.9-4.2A9.456 9.456 0 0 1 323.2 185c.082-1.246.54-2.17 1.806-2.417a32.681 32.681 0 0 1 4.105-.527c.908-.06 1.818-.084 2.728-.108l6.457-.168 3.3-.086a12.077 12.077 0 0 1 2.341-.135 7.008 7.008 0 0 1 .145 3.768c-1.027 3.183-3.92 4.706-7.15 4.593a15.714 15.714 0 0 1-5.529-1.4 6.608 6.608 0 0 0-2.072-.645 4.809 4.809 0 0 0 .688 2.448z" transform="translate(-317.066 -151.58)"/>
        <path id="Path_1466" data-name="Path 1466" class="cls-16" d="M344.929 164.528c1.694-.054 9.86.062 9.854.008-.275-2.58-.074-5.259-.113-7.862a19.179 19.179 0 0 0-1.01-6.38c-.661-1.79-1.777-3.709-3.944-3.674a3.741 3.741 0 0 0-1.144.206c-1.829.623-2.755 2.468-3.266 4.2a22.607 22.607 0 0 0-.623 6.947c.029 1.23-.069 2.46-.029 3.69.033.956.175 1.914.275 2.865z" transform="translate(-327.743 -134.222)"/>
        <path id="Path_1467" data-name="Path 1467" class="cls-13" d="M345.274 130.841c.014.7.766.913 1.163 1.434a3.274 3.274 0 0 1 .675 2.179 2.191 2.191 0 0 0 .009.769c.119.4.512.64.838.9 1.208.965 1.713 2.535 2.263 3.98a4.637 4.637 0 0 0 .816 1.505 2.687 2.687 0 0 0 2.37.809 3.845 3.845 0 0 0 2.464-1.932 2.965 2.965 0 0 0 .29-2.8c-.525-1.231-1.9-2.175-1.787-3.508.05-.567.378-1.076.464-1.639a3.457 3.457 0 0 0-1.469-2.878 7.227 7.227 0 0 1-2.235-2.48c-.309-.783-.252-1.668-.521-2.465a3.964 3.964 0 0 0-2.276-2.279 7.57 7.57 0 0 0-3.26-.464 9.382 9.382 0 0 0-3.667.837 5.65 5.65 0 0 0-2.68 2.574 1.282 1.282 0 0 0-.154.558c.01.573.644.915 1.205 1.033a2.683 2.683 0 0 1 1.577.654c.324.334.49.826.908 1.076a2.3 2.3 0 0 0 .846.321 3.07 3.07 0 0 0 .768-.1.586.586 0 0 1 .34-.7.882.882 0 0 1 .822.124c.922.629.214 1.62.231 2.492z" transform="translate(-324.725 -121.955)"/>
        <path id="Path_1468" data-name="Path 1468" class="cls-15" d="M354.4 158.278c.16.472.32.947.511 1.42l1.229 3.044a1.446 1.446 0 0 0 .729.924.939.939 0 0 0 .7-.07 1.743 1.743 0 0 0 .867-1.14 5.978 5.978 0 0 0-.453-3.281 43.5 43.5 0 0 0-2.188-5.54 11.006 11.006 0 0 0-.71-1.394 2.618 2.618 0 0 0-1.153-1.024 1.5 1.5 0 0 0-1.484.161 1.261 1.261 0 0 0-.219 1.488 35.717 35.717 0 0 0 1.455 3.541 17.393 17.393 0 0 1 .716 1.871z" transform="translate(-331.444 -136.448)"/>
        <path id="Path_1469" data-name="Path 1469" class="cls-15" d="M348.136 171.557a46.66 46.66 0 0 0-7.248 1.468 1.375 1.375 0 0 0-.546.23.817.817 0 0 0 .159 1.31 1.238 1.238 0 0 0 .4.059 26.964 26.964 0 0 0 3.554.016c1.236-.12 2.47-.251 3.7-.412q.744-.1 1.487-.21a5.068 5.068 0 0 0 1.872-.429.449.449 0 0 0 .152-.127.472.472 0 0 0 .06-.167 1.566 1.566 0 0 0 0-.815c-.281-.852-1.172-1.027-1.957-1.015-.546.009-1.09.042-1.633.092z" transform="translate(-325.475 -146.58)"/>
        <path id="Rectangle_3141" data-name="Rectangle 3141" class="cls-2" transform="rotate(174.493 6.993 15.554)" d="M0 0h10.216v1.205H0z"/>
        <path id="Rectangle_3142" data-name="Rectangle 3142" class="cls-2" transform="rotate(67.262 -14.934 12.518)" d="M0 0h10.216v1.205H0z"/>
        <path id="Path_1470" data-name="Path 1470" class="cls-15" d="M332.784 174.515a2.913 2.913 0 0 1 .528-.153l1.285-.268a1.915 1.915 0 0 1 1.871.257l.922.589a.952.952 0 0 1-.334.808 2.8 2.8 0 0 1-.782.457 4.077 4.077 0 0 1-.6.233 3.828 3.828 0 0 1-2.853-.744l-.208 1.007c-.046.222-.283.729-.58.413a.556.556 0 0 1-.074-.461l.141-1.046a2.089 2.089 0 0 1 .157-.64.972.972 0 0 1 .527-.452z" transform="translate(-321.425 -147.83)"/>
        <path id="Path_1471" data-name="Path 1471" class="cls-16" d="M351.2 153.689a13.779 13.779 0 0 0 1.021 2.873c.39-.145 4.466-1.666 4.561-1.465l-1.251-2.646a6.119 6.119 0 0 0-1.23-1.93 2.08 2.08 0 0 0-2.114-.538 1.845 1.845 0 0 0-1 1.088 4.213 4.213 0 0 0 .013 2.618z" transform="translate(-330.895 -135.84)"/>
        <path id="Path_1472" data-name="Path 1472" class="cls-3" d="M344.973 141.67a10.771 10.771 0 0 1-1.39.6c-.066.019-.135.028-.2.044a5.745 5.745 0 0 0 .732.84c.058.053.117.1.177.152a1.476 1.476 0 0 0 .621-.581 1.268 1.268 0 0 0 .155-.557c0-.039-.042-.521-.095-.498z" transform="translate(-327.115 -131.76)"/>
        <path id="Path_1473" data-name="Path 1473" class="cls-13" d="M342.446 137.17c.1.352.325.6.511.546s.26-.377.165-.73-.325-.6-.512-.546-.26.378-.164.73z" transform="translate(-326.628 -129.156)"/>
        <path id="Path_1474" data-name="Path 1474" d="M341.538 134.974a1.268 1.268 0 0 1 .891-.17 1.219 1.219 0 0 1 .661.33" transform="translate(-326.197 -128.34)" style="stroke:#1f143f;stroke-width:.5px;fill:none;stroke-miterlimit:10"/>
    </g>
</svg>
