<svg data-name="remove list_icon" xmlns="http://www.w3.org/2000/svg" width="44" height="44">
    <g data-name="Group 1803" style="opacity:.701">
        <path data-name="Path 716" d="M22 0A22 22 0 1 1 0 22 22 22 0 0 1 22 0z" style="fill:#ffedc9"/>
    </g>
    <g data-name="Group 1873">
        <path data-name="Path 715" d="M-1868.291-1867.307a6.416 6.416 0 0 0-4.55-2.249 5.235 5.235 0 0 0-3.352 1.105c-.372.294-.75 1.026-1.167 1.179a.6.6 0 0 1-.14.032.607.607 0 0 1-.14-.032c-.416-.152-.8-.885-1.167-1.179a5.234 5.234 0 0 0-3.352-1.105 6.415 6.415 0 0 0-4.55 2.249 7.531 7.531 0 0 0-1.142 7.927 14.016 14.016 0 0 0 3.688 4.369q3.026 2.682 6.212 5.179a3.041 3.041 0 0 0 .451.314 3.028 3.028 0 0 0 .451-.314q3.184-2.495 6.212-5.179a14.005 14.005 0 0 0 3.688-4.369 7.531 7.531 0 0 0-1.142-7.927z" transform="translate(1899.5 1881.557)" style="fill:none;stroke:#feb045;stroke-linecap:round"/>
    </g>
</svg>
