<svg xmlns="http://www.w3.org/2000/svg" width="32" height="32">
    <path data-name="Path 344" d="M2559.5-2974.445v-4.109l-3.917-.737a12.328 12.328 0 0 0-1.566-3.777l2.249-3.292-2.9-2.9-3.293 2.249a12.3 12.3 0 0 0-3.776-1.566l-.738-3.917h-4.108l-.738 3.917a12.3 12.3 0 0 0-3.776 1.566l-3.293-2.249-2.905 2.9 2.25 3.292a12.339 12.339 0 0 0-1.566 3.777l-3.917.737v4.109l3.917.737a12.331 12.331 0 0 0 1.566 3.776l-2.25 3.293 2.905 2.9 3.293-2.249a12.326 12.326 0 0 0 3.776 1.567l.738 3.916h4.108l.738-3.916a12.331 12.331 0 0 0 3.776-1.567l3.292 2.249 2.9-2.9-2.249-3.293a12.32 12.32 0 0 0 1.566-3.776zm-16 4.853a6.907 6.907 0 0 1-6.907-6.908 6.907 6.907 0 0 1 6.907-6.907 6.907 6.907 0 0 1 6.907 6.907 6.907 6.907 0 0 1-6.907 6.908z" transform="translate(-2527.5 2992.5)" style="fill:#805700"/>
</svg>
