<svg xmlns="http://www.w3.org/2000/svg" width="44" height="44">
    <g data-name="Group 1804" style="opacity:.701">
        <path data-name="Path 716" d="M22 0A22 22 0 1 1 0 22 22 22 0 0 1 22 0z" style="fill:#ffecc8"/>
    </g>
    <g data-name="Group 1871">
        <path data-name="Path 1362" d="M121.167 147.235v-.111a1.029 1.029 0 0 1 .914-1.113h1.013l-3.871-12.838h-3.045v1.032h2.452l3.253 10.788a2.036 2.036 0 0 0-1.563 2.129v.114a1.982 1.982 0 0 0 1.759 2.145h14.963v-1.032H122.08a1.029 1.029 0 0 1-.913-1.114zm3.754-1.306h10.055l3.2-9.879h-16.12l.2.689zm12.011-8.845L134.4 144.9h-8.879l-2.266-7.815zm-13.474 13.056a2.566 2.566 0 1 0 2.065 2.517 2.325 2.325 0 0 0-2.065-2.517zm0 4a1.512 1.512 0 1 1 1.217-1.483 1.373 1.373 0 0 1-1.217 1.483zm10.666-4a2.566 2.566 0 1 0 2.064 2.517 2.324 2.324 0 0 0-2.064-2.517zm0 4a1.511 1.511 0 1 1 1.217-1.483 1.371 1.371 0 0 1-1.217 1.483z" style="fill:#feb045" transform="translate(-105.178 -122.173)"/>
    </g>
</svg>
