<svg xmlns="http://www.w3.org/2000/svg" width="22" height="15.152">
    <path data-name="圖_類別影片" d="M-210.943-716.088a2.456 2.456 0 0 0-2.036-1.864 90.971 90.971 0 0 0-17.041 0 2.456 2.456 0 0 0-2.036 1.864 32.066 32.066 0 0 0 0 10.624 2.456 2.456 0 0 0 2.036 1.864 90.966 90.966 0 0 0 17.041 0 2.456 2.456 0 0 0 2.036-1.864 32.066 32.066 0 0 0 0-10.624zm-8.038 6.331-3.861 2.229a1.178 1.178 0 0 1-1.766-1.02v-4.459a1.178 1.178 0 0 1 1.766-1.02l3.861 2.229a1.178 1.178 0 0 1 .001 2.042z" transform="translate(232.5 718.352)" style="fill:#1a1a1a"/>
</svg>
