<svg xmlns="http://www.w3.org/2000/svg" width="23.001" height="27.505">
    <path d="M14227.251-5938.494c-1.694 0-3.067-1.93-3.067-4.307v-9.63h-.436c-1.52 0-2.749-1.583-2.749-3.535v-.1c0-1.952 1.229-3.535 2.749-3.535h3.968c.05-2.985 1.951-5.394 4.286-5.394s4.231 2.409 4.285 5.394h3.965c1.519 0 2.748 1.583 2.748 3.535v.1c0 1.952-1.229 3.535-2.748 3.535h-.433v9.63c0 2.377-1.377 4.307-3.071 4.307zm6.181-4.7c0 .7.4 1.269.9 1.269s.9-.568.9-1.269v-9.233h-1.8zm-4.669 0c0 .7.4 1.269.9 1.269s.9-.568.9-1.269v-9.233h-1.806zm.919-16.407h4.636c-.05-1.591-1.072-2.863-2.315-2.863s-2.272 1.264-2.321 2.864z" transform="translate(-14220.499 5965.499)" style="fill:#805700;stroke:transparent;stroke-miterlimit:10"/>
</svg>
