<svg xmlns="http://www.w3.org/2000/svg" width="22" height="22">
    <path data-name="圖_類別聲音" d="M-1305.091 1442.424v7.3a3.742 3.742 0 0 1-.439 1.765 3.809 3.809 0 0 1-3.367 2.015 3.808 3.808 0 0 1-2.691-1.107 3.755 3.755 0 0 1-1.115-2.673 3.793 3.793 0 0 1 3.806-3.78h2.2v-3.516a9.371 9.371 0 0 0-9.392-9.328 9.371 9.371 0 0 0-9.392 9.328v3.516h2.2a3.793 3.793 0 0 1 3.805 3.78 3.755 3.755 0 0 1-1.115 2.673 3.807 3.807 0 0 1-2.691 1.107 3.81 3.81 0 0 1-3.367-2.015 3.741 3.741 0 0 1-.439-1.765v-7.3a10.815 10.815 0 0 1 3.222-7.725 10.965 10.965 0 0 1 7.778-3.2 10.966 10.966 0 0 1 7.778 3.2 10.816 10.816 0 0 1 3.219 7.725z" transform="translate(1327.091 -1431.5)" style="fill:#1a1a1a"/>
</svg>
