<svg xmlns="http://www.w3.org/2000/svg" width="30.883" height="37">
    <path d="M14229.49-5929c-2.3 0-4.166-2.621-4.166-5.85v-13.08h-.592c-2.064 0-3.734-2.15-3.734-4.8v-.141c0-2.65 1.67-4.8 3.734-4.8h5.389c.068-4.055 2.65-7.327 5.822-7.327s5.746 3.272 5.82 7.327h5.385c2.063 0 3.732 2.15 3.732 4.8v.141c0 2.651-1.67 4.8-3.732 4.8h-.588v13.08c0 3.229-1.871 5.85-4.172 5.85zm8.395-6.389c0 .951.547 1.724 1.229 1.724s1.223-.772 1.223-1.724v-12.541h-2.451zm-6.342 0c0 .951.549 1.724 1.229 1.724s1.225-.772 1.225-1.724v-12.541h-2.453zm1.248-22.284h6.3c-.068-2.161-1.457-3.89-3.145-3.89s-3.087 1.73-3.155 3.891z" transform="translate(-14220.498 5965.499)" style="fill:#fff;stroke:transparent;stroke-miterlimit:10"/>
</svg>
