<svg xmlns="http://www.w3.org/2000/svg" width="32" height="32">
    <path data-name="Path 1383" d="M16 0A16 16 0 1 1 0 16 16 16 0 0 1 16 0z" style="fill:#feb045"/>
    <path data-name="Union 7" d="m-3178.653-6039.238-4.458-4.459-4.459 4.459a1 1 0 0 1-.708.293.993.993 0 0 1-.706-.293 1 1 0 0 1 0-1.414l4.459-4.459-4.459-4.459a1 1 0 0 1 0-1.414 1 1 0 0 1 1.414 0l4.459 4.459 4.458-4.459a1 1 0 0 1 1.416 0 1 1 0 0 1 0 1.414l-4.46 4.459 4.46 4.459a1 1 0 0 1 0 1.414 1 1 0 0 1-.708.293 1 1 0 0 1-.708-.293z" transform="translate(3198.556 6060.554)" style="fill:#4b4b4b"/>
</svg>
