<svg xmlns="http://www.w3.org/2000/svg" width="32" height="32">
    <defs>
        <style>
            .cls-2{fill:#805700}
        </style>
    </defs>
    <g id="Lesson_icon" transform="translate(-63 -337.352)" style="opacity:.264">
        <g id="Group_1824" data-name="Group 1824" transform="translate(1951.5 -551.909)">
            <g id="Group_713" data-name="Group 713" transform="translate(-1888.5 889.261)">
                <path id="Path_372" data-name="Path 372" class="cls-2" d="M-1858.006 894.7h-4.6v-3.04c0-1.321-1.526-2.4-3.4-2.4h-12.985c-1.876 0-3.4 1.075-3.4 2.4v3.04h-4.6c-.832 0-1.506.475-1.506 1.061v12.607h32v-12.61c-.003-.586-.677-1.058-1.509-1.058zm-21.979-3.04c0-.385.445-.7.992-.7h12.985c.547 0 .992.313.992.7v3.04h-14.969z" transform="translate(1888.5 -889.261)"/>
            </g>
            <g id="Group_714" data-name="Group 714" transform="translate(-1888.5 913.308)">
                <path id="Path_373" data-name="Path 373" class="cls-2" d="M-1862 1125.735c0 .878-1.01 1.589-2.255 1.589s-2.256-.711-2.256-1.589v-.542h-11.97v.542c0 .878-1.01 1.589-2.256 1.589-1.246 0-2.256-.711-2.256-1.589v-.542h-5.5v10.479c0 .586.675 1.061 1.506 1.061h28.988c.832 0 1.506-.475 1.506-1.061v-10.479h-5.5z" transform="translate(1888.5 -1128.78)"/>
            </g>
        </g>
    </g>
</svg>
