<svg xmlns="http://www.w3.org/2000/svg" width="477" height="251">
    <g data-name="popup_frame_book" transform="translate(-274 -259)">
        <rect width="477" height="251" rx="37" transform="translate(274 259)" style="fill:#fafafa"/>
        <text transform="translate(513 466.051)" style="fill:#1a1a1a;font-size:28px;font-family:PingFangTC-Regular,PingFang TC;letter-spacing:.028em;opacity:.848"><tspan x="-100.352" y="0">已加入我的備課</tspan></text>
        <path data-name="Path 1628" d="M62 0A62 62 0 1 1 0 62 62 62 0 0 1 62 0z" style="fill:#ffd681" transform="translate(451 293)"/>
        <path data-name="Path 725" d="M-7219 623.964a10.626 10.626 0 0 0 .4-1.245 24.177 24.177 0 0 1 6.185-12.391c10.4-11.312 20.6-22.81 30.816-34.288a5.119 5.119 0 0 1 5.546-1.8c12.857 2.948 25.754 5.774 38.636 8.645 4.041.9 4.947 3.436 2.249 6.555q-16.9 19.52-33.821 39a4.157 4.157 0 0 1-4.779 1.289q-15.825-4.577-31.674-9.036c-4.783-1.354-6.954.32-7.04 5.35-.081 4.777 2.245 7.939 6.807 9.287 11.254 3.323 22.513 6.666 33.783 9.927a2.38 2.38 0 0 0 2.032-.578q14.191-16.939 28.233-34a3.933 3.933 0 0 0 .536-2.025 74 74 0 0 1 .733-7.491 3.055 3.055 0 0 1 3.981-2.533c1.884.587 2.442 2.217 2.126 4.443a20.279 20.279 0 0 0 .033 6.139 4.579 4.579 0 0 1-1.1 4.019q-7.468 9.02-14.948 18.039c-5.113 6.156-10.245 12.291-15.334 18.462-2.59 3.134-2.94 3.266-6.81 2.117-11.919-3.541-23.83-7.111-35.766-10.589-5.967-1.738-9.11-5.873-10.451-11.684a8.945 8.945 0 0 0-.372-1.041zm40.022-37.215c-2.437-.147-3.463 1.706-4.735 3.17-1.914 2.192-1.705 2.9 1.17 3.613 7.135 1.765 14.317 3.346 21.393 5.3 3.446.951 5.847.26 7.868-2.661 1.544-2.238 1.416-2.849-1.334-3.518-5.408-1.32-10.817-2.665-16.234-3.984-2.707-.657-5.419-1.281-8.128-1.92z" transform="translate(7686.241 -260.189)" style="fill:#805700"/>
    </g>
</svg>
